<svg width="1280" height="720" xmlns="http://www.w3.org/2000/svg" xmlns:xlink="http://www.w3.org/1999/xlink" overflow="hidden"><defs><clipPath id="clip0"><rect x="0" y="0" width="1280" height="720"/></clipPath><clipPath id="clip1"><rect x="624" y="390" width="61" height="60"/></clipPath><clipPath id="clip2"><rect x="624" y="390" width="61" height="60"/></clipPath><clipPath id="clip3"><rect x="624" y="390" width="61" height="60"/></clipPath></defs><g clip-path="url(#clip0)"><rect x="0" y="0" width="1280" height="720" fill="#FFFFFF"/><path d="M662 374 618 374C615.794 374.007 614.007 375.794 614 378L614 462C614.007 464.206 615.794 465.993 618 466L662 466C664.206 465.993 665.993 464.206 666 462L666 378C665.993 375.794 664.206 374.007 662 374ZM636.5 378 643.5 378C644.328 378 645 378.672 645 379.5 645 380.328 644.328 381 643.5 381L636.5 381C635.672 381 635 380.328 635 379.5 635 378.672 635.672 378 636.5 378ZM662 455 618 455 618 385 662 385Z" fill="#C00000" fill-rule="evenodd"/><path d="M632.625 400.809 628.023 400.809 628.023 397.824 632.625 397.824ZM638.901 397.824 638.901 400.809 634.299 400.809 634.299 397.824ZM645.177 397.824 645.177 400.809 640.575 400.809 640.575 397.824ZM651.453 397.824 651.453 400.809 646.851 400.809 646.851 397.824ZM651.453 405.504 646.851 405.504 646.851 402.515 651.453 402.515ZM651.453 409.128 646.851 409.554 646.851 407.205 651.453 407.205ZM632.625 407.208 632.625 410.829 628.023 411.256 628.023 407.205ZM632.625 405.503 628.023 405.503 628.023 402.515 632.625 402.515ZM638.901 405.503 634.299 405.503 634.299 402.515 638.901 402.515ZM640.575 405.503 640.575 402.515 645.177 402.515 645.177 405.5ZM638.901 410.278 634.299 410.705 634.299 407.205 638.901 407.205ZM640.575 407.208 645.177 407.208 645.177 409.681 640.575 410.108ZM653.961 411.472 653.961 395.266 628.023 395.266 628.023 394.84C628.033 392.729 626.362 391.01 624.291 391 624.279 391 624.267 391 624.255 391 623.562 391 623 391.573 623 392.279 623 392.986 623.562 393.559 624.255 393.559 624.936 393.546 625.498 394.098 625.511 394.791 625.511 394.807 625.511 394.822 625.511 394.838L625.511 416.16C625.501 418.27 627.172 419.989 629.243 419.999 629.255 420 629.267 420 629.279 419.999L652.709 419.999C653.402 420.019 653.98 419.463 654 418.757 654.019 418.05 653.473 417.462 652.78 417.442 652.757 417.441 652.733 417.441 652.709 417.442L629.278 417.442C628.597 417.454 628.036 416.902 628.023 416.208 628.023 416.193 628.023 416.178 628.023 416.163L628.023 413.814Z" fill-rule="evenodd"/><path d="M633 425.5C633 426.881 631.881 428 630.5 428 629.119 428 628 426.881 628 425.5 628 424.119 629.119 423 630.5 423 631.881 423 633 424.119 633 425.5Z" fill-rule="evenodd"/><path d="M652 425.5C652 426.881 650.881 428 649.5 428 648.119 428 647 426.881 647 425.5 647 424.119 648.119 423 649.5 423 650.881 423 652 424.119 652 425.5Z" fill-rule="evenodd"/><text font-family="Calibri,Calibri_MSFontService,sans-serif" font-weight="400" font-size="16" transform="translate(621.539 447)">IKLA<tspan font-size="16" x="28.3333" y="0">N</tspan></text><g clip-path="url(#clip1)"><g clip-path="url(#clip2)"><g clip-path="url(#clip3)"><path d="M53.4375 47.25 45.625 39.4375C44.5625 38.375 43.125 38 41.75 38.25L39 35.5C41.4375 32.375 42.875 28.375 42.875 24.125 42.875 13.8125 34.4375 5.375 24.125 5.375 13.8125 5.375 5.375 13.8125 5.375 24.125 5.375 34.4375 13.8125 42.875 24.125 42.875 28.375 42.875 32.3125 41.4375 35.5 39L38.25 41.75C38 43.125 38.375 44.5625 39.4375 45.625L47.25 53.4375C48.125 54.3125 49.25 54.75 50.375 54.75 51.5 54.75 52.625 54.3125 53.5 53.4375 55.125 51.6875 55.125 48.9375 53.4375 47.25ZM24.0625 39.0625C15.8125 39.0625 9.0625 32.3125 9.0625 24.0625 9.0625 15.8125 15.8125 9.0625 24.0625 9.0625 32.3125 9.0625 39.0625 15.8125 39.0625 24.0625 39.0625 32.3125 32.3125 39.0625 24.0625 39.0625Z" fill="#0070C0" transform="matrix(1.01667 0 0 1 624 390)"/></g></g></g></g></svg>